<?xml version="1.0" encoding="UTF-8"?>
<svg version="1.1" xmlns="http://www.w3.org/2000/svg" width="320" height="320">
<path d="M0 0 C2.70097707 0.00849211 5.39981683 -0.02034081 8.10058594 -0.05200195 C23.33652259 -0.1140748 38.19580398 2.01808183 52.46777344 7.57104492 C53.23420166 7.86253418 54.00062988 8.15402344 54.7902832 8.4543457 C73.19864284 15.70084675 88.61524566 25.86161878 102.96777344 39.44604492 C103.91394531 40.31616211 104.86011719 41.1862793 105.83496094 42.08276367 C122.89705661 58.12643499 134.94037051 79.20940625 141.96777344 101.44604492 C142.33177246 102.51798096 142.33177246 102.51798096 142.703125 103.61157227 C147.13486976 117.07905485 147.47011889 130.59162259 147.53027344 144.63354492 C147.54341583 145.96237701 147.54341583 145.96237701 147.55682373 147.3180542 C147.66563208 163.37601211 145.65564104 179.02020176 139.78027344 194.07104492 C139.48548096 194.84407959 139.19068848 195.61711426 138.88696289 196.41357422 C131.76469511 214.51531307 121.4414627 230.42285773 107.96777344 244.44604492 C107.52739746 244.91751953 107.08702148 245.38899414 106.63330078 245.87475586 C99.18894362 253.834392 91.24091516 260.67268396 81.96777344 266.44604492 C81.30777344 266.44604492 80.64777344 266.44604492 79.96777344 266.44604492 C78.69360352 264.87657166 78.69360352 264.87657166 77.23730469 262.64501953 C76.68913086 261.81252182 76.14095703 260.98002411 75.57617188 260.12229919 C74.98352539 259.20690872 74.39087891 258.29151825 73.78027344 257.34838867 C73.16313477 256.4073378 72.54599609 255.46628693 71.91015625 254.49671936 C69.92279857 251.46322999 67.94510453 248.4235773 65.96777344 245.38354492 C64.66503921 243.39028063 63.36166118 241.39743695 62.05761719 239.4050293 C60.13667534 236.46956846 58.21635593 233.53371717 56.29873657 230.59608459 C52.45997028 224.71618382 48.59290697 218.85694995 44.68783569 213.02093506 C41.31257814 207.9734516 37.96907149 202.90545408 34.63183594 197.83276367 C34.0717836 196.98154938 33.51173126 196.13033508 32.93470764 195.25332642 C31.76303921 193.47236897 30.5914145 191.69138275 29.41983032 189.91036987 C18.75536852 173.70214786 8.04786456 157.52344083 -2.71972656 141.38354492 C-3.30063049 140.51241058 -3.88153442 139.64127625 -4.4800415 138.7437439 C-9.77997439 130.79626115 -15.08287848 122.85087925 -20.4153595 114.92518616 C-22.14503586 112.35392072 -23.87177828 109.78069221 -25.59829712 107.20730591 C-26.74818848 105.49668134 -27.90311108 103.7895355 -29.05834961 102.08251953 C-29.72519775 101.08873291 -30.3920459 100.09494629 -31.07910156 99.07104492 C-31.65499023 98.21768555 -32.23087891 97.36432617 -32.82421875 96.48510742 C-34.03222656 94.44604492 -34.03222656 94.44604492 -34.03222656 92.44604492 C-35.96942034 92.3919837 -37.90704578 92.35322467 -39.84472656 92.32104492 C-40.92367187 92.2978418 -42.00261719 92.27463867 -43.11425781 92.25073242 C-46.22625524 92.21580776 -46.22625524 92.21580776 -49.03222656 94.44604492 C-49.48122663 96.54282708 -49.48122663 96.54282708 -49.39971924 99.00770569 C-49.40528839 99.96822342 -49.41085754 100.92874115 -49.41659546 101.91836548 C-49.40738068 102.97558807 -49.39816589 104.03281067 -49.38867188 105.12207031 C-49.39071625 106.23266312 -49.39276062 107.34325592 -49.39486694 108.48750305 C-49.39788483 112.17306773 -49.37936841 115.85818939 -49.36035156 119.54370117 C-49.35729584 122.09435414 -49.3554183 124.64500877 -49.35467529 127.19566345 C-49.350066 132.54652721 -49.33600356 137.89723808 -49.31347656 143.24804688 C-49.28458777 150.12413929 -49.27425239 157.00012855 -49.26979446 163.87627506 C-49.26624656 169.14429246 -49.25583643 174.41229126 -49.24391937 179.68029594 C-49.23820224 182.21656537 -49.23344835 184.75283715 -49.2296524 187.28911018 C-49.22281535 190.8259202 -49.20919553 194.36263437 -49.19335938 197.89941406 C-49.19168259 199.4882843 -49.19168259 199.4882843 -49.18997192 201.10925293 C-49.18426178 202.06695084 -49.17855164 203.02464874 -49.17266846 204.0113678 C-49.16820646 205.26710145 -49.16820646 205.26710145 -49.16365433 206.54820347 C-49.24014133 208.45698559 -49.24014133 208.45698559 -48.03222656 209.44604492 C-43.74222656 209.44604492 -39.45222656 209.44604492 -35.03222656 209.44604492 C-34.70222656 180.73604492 -34.37222656 152.02604492 -34.03222656 122.44604492 C-30.58595734 123.59480133 -30.24715575 124.20846739 -28.34472656 127.15307617 C-27.82144775 127.95189209 -27.29816895 128.75070801 -26.7590332 129.57373047 C-26.18918701 130.45971924 -25.61934082 131.34570801 -25.03222656 132.25854492 C-23.7614032 134.19950877 -22.48919695 136.13956769 -21.21582031 138.07885742 C-20.53632324 139.116875 -19.85682617 140.15489258 -19.15673828 141.22436523 C-15.52497907 146.73168477 -11.8080501 152.18108942 -8.09472656 157.63354492 C-6.47693184 160.01073648 -4.85980663 162.38838218 -3.24316406 164.76635742 C-2.8275975 165.37753418 -2.41203094 165.98871094 -1.98387146 166.6184082 C1.2940995 171.44384808 4.5510792 176.28318717 7.80371094 181.12573242 C17.39537848 195.39580758 27.00214128 209.59925318 37.37158203 223.3215332 C39.64069338 226.34169333 41.86807227 229.39185907 44.09912109 232.44018555 C51.72439328 242.85206659 59.53073357 253.1225162 67.38061523 263.36572266 C67.90437744 264.052229 68.42813965 264.73873535 68.96777344 265.44604492 C69.53085205 266.1331958 70.09393066 266.82034668 70.67407227 267.52832031 C71.96777344 269.44604492 71.96777344 269.44604492 71.96777344 272.44604492 C63.05568741 276.99444116 54.19703018 280.95806172 44.59277344 283.82104492 C43.79838867 284.05903809 43.00400391 284.29703125 42.18554688 284.54223633 C39.78978612 285.22794003 37.38759815 285.85106189 34.96777344 286.44604492 C34.19981445 286.64182129 33.43185547 286.83759766 32.640625 287.03930664 C23.93585616 288.95040062 15.10587963 288.81821838 6.23730469 288.81665039 C3.50097888 288.82099223 0.76631202 288.85731789 -1.96972656 288.89526367 C-17.29566383 288.99389663 -32.17309419 286.91040206 -46.53222656 281.32104492 C-47.30155518 281.02738037 -48.07088379 280.73371582 -48.86352539 280.43115234 C-71.53122976 271.48500794 -92.59955798 257.49061466 -108.03222656 238.44604492 C-108.80308594 237.51276367 -109.57394531 236.57948242 -110.36816406 235.61791992 C-124.29586395 218.40004147 -133.86938514 197.94656216 -139.03222656 176.44604492 C-139.31259766 175.3383374 -139.31259766 175.3383374 -139.59863281 174.20825195 C-141.51700705 165.46423368 -141.40440705 156.62386892 -141.40283203 147.71557617 C-141.40717387 144.97925036 -141.44349953 142.2445835 -141.48144531 139.50854492 C-141.58055954 124.12147297 -139.4694963 109.22993519 -133.84472656 94.82104492 C-133.54993408 94.04801025 -133.2551416 93.27497559 -132.95141602 92.47851562 C-124.90441671 72.02650729 -112.74805914 54.74830296 -97.03222656 39.44604492 C-96.59394531 38.96264648 -96.15566406 38.47924805 -95.70410156 37.98120117 C-71.74942797 12.27227118 -34.33483112 -0.16382301 0 0 Z M38.96777344 89.44604492 C37.8795011 102.04662511 37.47691579 114.63387682 37.31570816 127.27548599 C37.2695808 130.8390269 37.20206839 134.39926887 37.08300781 137.96118164 C36.55356482 154.21873573 36.24748721 167.83405968 47.53991699 180.70373535 C49.64640975 183.27413555 51.29399666 186.08457283 52.97906494 188.94268799 C53.30533875 189.43879578 53.63161255 189.93490356 53.96777344 190.44604492 C54.29777344 190.44604492 54.62777344 190.44604492 54.96777344 190.44604492 C55.01405773 177.58987547 55.04962275 164.73372575 55.07139778 151.87749004 C55.08184723 145.90820567 55.09602764 139.93897819 55.11865234 133.96972656 C55.14033926 128.21204377 55.15233331 122.4544158 55.15752792 116.69669533 C55.16123115 114.49699859 55.16846234 112.29730494 55.17923355 110.09763145 C55.19369324 107.02319159 55.19575369 103.94897996 55.19482422 100.87451172 C55.20201477 99.95957443 55.20920532 99.04463715 55.21661377 98.10197449 C55.21386444 97.26484924 55.21111511 96.427724 55.20828247 95.56523132 C55.21104785 94.47428933 55.21104785 94.47428933 55.21386909 93.3613081 C55.06971094 91.11780258 55.06971094 91.11780258 52.96777344 88.44604492 C47.34556642 87.22790007 44.42779154 87.54567135 38.96777344 89.44604492 Z " fill="#000000" transform="translate(157.0322265625,15.553955078125)"/>
</svg>
