<?xml version="1.0" encoding="UTF-8"?>
<svg version="1.1" xmlns="http://www.w3.org/2000/svg" width="1024" height="1024">
<path d="M0 0 C337.92 0 675.84 0 1024 0 C1024 337.92 1024 675.84 1024 1024 C686.08 1024 348.16 1024 0 1024 C0 686.08 0 348.16 0 0 Z " fill="#100F13" transform="translate(0,0)"/>
<path d="M0 0 C1.83713728 0.51468822 3.67437925 1.02900288 5.51171875 1.54296875 C42.7979509 12.20630894 79.48921006 28.81994104 112 50 C112.65033203 50.42039551 113.30066406 50.84079102 113.97070312 51.27392578 C131.17096483 62.42267989 147.70972418 74.32998491 163 88 C163.90105469 88.80179687 164.80210937 89.60359375 165.73046875 90.4296875 C167.37757507 91.90569906 169.01973249 93.38725681 170.65625 94.875 C172.20842525 96.28230556 173.77087405 97.67836916 175.34375 99.0625 C184.75566329 107.37431953 194.00340571 116.17535576 202.1171875 125.77734375 C203.68318307 127.62599828 205.27371928 129.44303459 206.8828125 131.25390625 C214.76093693 140.15718468 222.02551001 149.37612454 229 159 C229.48823242 159.66725098 229.97646484 160.33450195 230.47949219 161.02197266 C254.84758004 194.39356298 273.95553762 231.18090282 288 270 C288.31775391 270.85883789 288.63550781 271.71767578 288.96289062 272.60253906 C298.08806364 297.40352673 304.18471511 323.88294146 308 350 C308.21334573 351.37633247 308.42687469 352.75263656 308.640625 354.12890625 C309.70840252 361.4431823 310.32088551 368.72607561 310.65893555 376.10498047 C310.80185803 379.1449306 311.01598785 382.09874573 311.50268555 385.10473633 C312.10527259 389.82455775 312.18053548 394.4462331 312.203125 399.19921875 C312.21013931 400.17889114 312.21715363 401.15856354 312.22438049 402.16792297 C312.24190459 405.34116199 312.24824024 408.51421425 312.25 411.6875 C312.25101212 413.31425659 312.25101212 413.31425659 312.25204468 414.97387695 C312.23533634 431.86710332 311.49843005 448.27211678 309 465 C308.72781208 466.9561338 308.45566104 468.91227298 308.18469238 470.86857605 C304.56504952 496.78278782 299.75563186 523.61092036 290 548 C21.71 548 -246.58 548 -523 548 C-525.21116772 541.36649683 -527.27618035 534.77807497 -529.1875 528.0625 C-529.59645508 526.64614258 -529.59645508 526.64614258 -530.01367188 525.20117188 C-530.39942383 523.85055664 -530.39942383 523.85055664 -530.79296875 522.47265625 C-531.0252417 521.66062744 -531.25751465 520.84859863 -531.49682617 520.01196289 C-532 518 -532 518 -532 516 C-530.71707028 515.99902319 -529.43414057 515.99804638 -528.11233419 515.99703997 C-471.55974944 515.95378543 -415.00716862 515.90682591 -358.4546051 515.84101868 C-357.16991614 515.83952533 -357.16991614 515.83952533 -355.85927387 515.83800181 C-337.2451742 515.81634222 -318.63107539 515.79401945 -300.01697734 515.77101372 C-290.88835288 515.75973541 -281.75972825 515.74860361 -272.63110352 515.73754883 C-271.26850679 515.73589498 -271.26850679 515.73589498 -269.87838287 515.73420772 C-240.44563185 515.69855245 -211.01288197 515.67256821 -181.58011713 515.65161031 C-151.32887504 515.63001845 -121.07765842 515.5986476 -90.82643971 515.55500887 C-86.55162688 515.54884681 -82.2768139 515.54279631 -78.00200081 515.53681374 C-77.16067351 515.53563285 -76.31934621 515.53445197 -75.45252415 515.53323531 C-61.92083519 515.51452898 -48.3891585 515.50610173 -34.8574582 515.50153876 C-21.24665415 515.49672901 -7.6358968 515.48104166 5.97488219 515.45433434 C14.05682967 515.4388041 22.13868497 515.43153078 30.22064653 515.43623071 C36.26356092 515.43882419 42.30633697 515.42577444 48.34922635 515.40676448 C50.78823319 515.40150485 53.22725724 515.40125297 55.66626389 515.40660437 C71.80482124 515.43839842 86.70009282 514.97009522 101.6875 508.3125 C102.49074707 507.96147217 103.29399414 507.61044434 104.12158203 507.2487793 C125.39120783 497.68279182 140.81435472 481.03529211 149.10400391 459.34228516 C158.14403597 434.68470667 157.75483149 406.93021669 147.01611328 382.78808594 C140.89323824 369.70777769 132.84498463 358.35857963 124 347 C123.0151873 345.71778398 122.03078513 344.43525249 121.046875 343.15234375 C115.75341096 336.29649165 110.23156668 329.65116183 104.6015625 323.0703125 C102.25742299 320.32265955 100.00116684 317.51199772 97.75 314.6875 C92.66438389 308.43109456 87.10872715 302.63364428 81.56640625 296.78515625 C78.79978764 293.86287481 76.09856966 290.89419493 73.4375 287.875 C65.25117739 278.71190026 56.49822368 269.80630024 47 262 C46.50516113 261.58073242 46.01032227 261.16146484 45.50048828 260.72949219 C4.79016956 226.28683924 -47.60729376 211.9850024 -99.8527832 207.4855957 C-100.59107003 207.42144868 -101.32935685 207.35730165 -102.09001601 207.29121077 C-117.74480382 205.94114651 -133.40478079 204.9829365 -149.10546875 204.35546875 C-149.8633984 204.3245488 -150.62132804 204.29362884 -151.40222526 204.26177192 C-211.52111086 201.83216209 -271.77636535 202.43190389 -331.9338063 202.33853519 C-344.01993542 202.31953315 -356.10603428 202.29334782 -368.19213867 202.26245117 C-369.05307266 202.26025235 -369.91400665 202.25805352 -370.80102954 202.25578807 C-375.12349196 202.24471217 -379.44595407 202.23352054 -383.76841605 202.22227156 C-419.17891517 202.13026515 -454.5894296 202.05813604 -490 202 C-489.28079147 198.9088709 -488.32542396 196.56892187 -486.69921875 193.83203125 C-486.22299072 193.02999268 -485.7467627 192.2279541 -485.25610352 191.40161133 C-484.73846436 190.54720459 -484.2208252 189.69279785 -483.6875 188.8125 C-482.88107056 187.47771606 -482.88107056 187.47771606 -482.05834961 186.1159668 C-476.76256878 177.45273914 -471.04017996 169.15776908 -465 161 C-464.4726123 160.28714844 -463.94522461 159.57429687 -463.40185547 158.83984375 C-455.9930548 148.8812755 -448.23535204 139.28574127 -440 130 C-439.37593262 129.28835693 -438.75186523 128.57671387 -438.10888672 127.84350586 C-432.09948514 121.06280372 -425.79443936 114.60824757 -419.38964844 108.2043457 C-417.62924948 106.44175477 -415.87703618 104.67128961 -414.125 102.90039062 C-407.39104232 96.13337 -400.50201101 89.91709027 -393 84 C-391.16390858 82.44074195 -389.32995036 80.87896067 -387.5 79.3125 C-366.92582343 62.18502826 -344.39571843 47.91941361 -321 35 C-320.23429688 34.57122559 -319.46859375 34.14245117 -318.6796875 33.70068359 C-230.39614689 -15.57429781 -125.38527003 -26.4751663 0 0 Z " fill="#FEFEFE" transform="translate(629,99)"/>
<path d="M0 0 C257.4 0 514.8 0 780 0 C779.22904458 3.85477712 778.61933612 6.15135809 776.953125 9.52734375 C776.52717041 10.39069336 776.10121582 11.25404297 775.66235352 12.14355469 C775.19627686 13.06555664 774.7302002 13.98755859 774.25 14.9375 C773.76265381 15.90461914 773.27530762 16.87173828 772.77319336 17.86816406 C758.30456951 46.17803356 740.44168595 73.30376364 719.48632812 97.24267578 C718.37457733 98.55712752 717.29493735 99.8988575 716.23242188 101.25341797 C709.79392329 109.40509321 702.61329448 116.69156963 695.25341797 124.00732422 C693.1288432 126.1211762 691.01517939 128.24551542 688.90234375 130.37109375 C681.57205354 137.70851835 674.1791343 144.60909656 666 151 C664.16390858 152.55925805 662.32995036 154.12103933 660.5 155.6875 C647.10830311 166.84436002 632.82715114 176.85215226 618 186 C617.33355469 186.41169434 616.66710937 186.82338867 615.98046875 187.24755859 C603.66069253 194.79790688 590.8877308 201.47849767 578 208 C576.80600586 208.60908203 576.80600586 208.60908203 575.58789062 209.23046875 C560.8746513 216.68246378 545.47381272 222.35229431 530 228 C528.81438477 228.43586426 527.62876953 228.87172852 526.40722656 229.32080078 C495.04067125 240.71940526 461.21057473 247.17061589 428 250 C427.22769043 250.06912598 426.45538086 250.13825195 425.65966797 250.20947266 C378.44861764 254.24761034 326.88504345 250.5870545 281.36328125 236.98828125 C277.90544416 235.9722153 274.42994597 235.07669264 270.9375 234.1875 C212.13394391 218.47431954 157.81425692 187.76574547 112 148 C111.2884375 147.38898438 110.576875 146.77796875 109.84375 146.1484375 C107.87947069 144.44981892 105.93625223 142.73050247 104 141 C103.14535156 140.23816406 102.29070312 139.47632813 101.41015625 138.69140625 C95.34892294 133.21595656 89.47444161 127.5772977 83.6875 121.8125 C83.03007812 121.15967041 82.37265625 120.50684082 81.6953125 119.83422852 C77.26116705 115.3860864 73.09296274 110.76199886 69 106 C68.0503305 104.91722148 67.09985649 103.83514784 66.1484375 102.75390625 C0 26.92146961 0 26.92146961 0 0 Z " fill="#FEFEFE" transform="translate(121,690)"/>
<path d="M0 0 C39.56687529 -0.04604911 79.13374701 -0.08115559 118.70064387 -0.10213066 C123.40052694 -0.10463127 128.10040997 -0.10721999 132.80029297 -0.10986328 C133.73572695 -0.1103879 134.67116093 -0.11091252 135.6349414 -0.11145304 C150.66629596 -0.1200919 165.6976348 -0.13582475 180.72898012 -0.15430559 C196.21942092 -0.1731882 211.70985364 -0.1841549 227.20030546 -0.18817699 C235.87283505 -0.1906452 244.54533193 -0.1964968 253.21784973 -0.21146011 C288.07896484 -0.26986468 322.85696774 -0.18226585 357.6825738 1.64441717 C368.02455892 2.1771903 378.37472922 2.41710765 388.72667694 2.66574287 C422.1186082 3.47353889 454.52688252 7.55794643 485 22 C485.77408203 22.36577148 486.54816406 22.73154297 487.34570312 23.10839844 C505.60113593 31.88824827 521.89238522 43.56855854 537 57 C538.3541479 58.16668845 539.70831235 59.33335769 541.0625 60.5 C552.2931503 70.40939733 563.46220102 80.5077642 573.19921875 91.91796875 C575.37324202 94.43153578 577.62390488 96.86776229 579.875 99.3125 C583.88814907 103.71732278 587.71817818 108.22445647 591.45703125 112.86328125 C593.38712129 115.25765951 595.34984321 117.62248113 597.32421875 119.98046875 C603.04188514 126.82372759 608.67045127 133.69228801 613.875 140.9375 C614.29773193 141.52249268 614.72046387 142.10748535 615.15600586 142.71020508 C618 146.74498954 618 146.74498954 618 149 C403.5 149 189 149 -32 149 C-32 125.93351064 -32 125.93351064 -31.0625 118.5 C-30.97548828 117.71753906 -30.88847656 116.93507813 -30.79882812 116.12890625 C-30.39860303 112.66028876 -29.84838093 109.39352372 -29 106 C83.86 106 196.72 106 313 106 C313 91.81 313 77.62 313 63 C203.11 63 93.22 63 -20 63 C-17.74823113 49.48938679 -17.74823113 49.48938679 -15.64453125 43.2421875 C-15.30744392 42.23298752 -15.30744392 42.23298752 -14.96354675 41.20339966 C-14.49130059 39.79561143 -14.01475081 38.38925963 -13.53393555 36.984375 C-12.82164245 34.90173123 -12.12355413 32.81476016 -11.42773438 30.7265625 C-8.90827307 23.2304269 -6.19851565 15.82770345 -3.3112793 8.46533203 C-2.99103539 7.64541275 -2.67079147 6.82549347 -2.3408432 5.98072815 C-1.56180114 3.9866676 -0.78107916 1.99326349 0 0 Z " fill="#FDFDFD" transform="translate(116,344)"/>
<path d="M0 0 C216.15 0 432.3 0 655 0 C653.59623044 9.82638694 648.72577087 18.64343521 640.6640625 24.77734375 C625.90425083 34.77933647 612.37339601 34.56846878 595.09527588 34.48101807 C592.53579086 34.48276335 589.97630653 34.48626747 587.41682601 34.49137473 C581.86166322 34.49963909 576.30667242 34.49314733 570.75152969 34.4768219 C562.4913599 34.45261465 554.23129783 34.45148488 545.97109904 34.45498985 C532.07408621 34.46023765 518.17714964 34.44690957 504.280159 34.42292023 C490.52443311 34.39923571 476.76873899 34.38385313 463.01299286 34.37950897 C462.15705542 34.37923401 461.30111799 34.37895906 460.41924306 34.37867576 C456.07220283 34.37732239 451.72516258 34.37611687 447.3781223 34.37496826 C416.60427347 34.36657114 385.83046611 34.33963436 355.05664062 34.30175781 C325.16406474 34.26500843 295.27150021 34.23667968 265.37890625 34.21972656 C264.45715801 34.21920046 263.53540977 34.21867435 262.58572977 34.21813231 C253.32898413 34.21285813 244.07223842 34.20775489 234.81549262 34.20277687 C215.95916814 34.19263257 197.1028444 34.18134756 178.246521 34.16937256 C177.37957632 34.1688234 176.51263165 34.16827424 175.61941592 34.16770844 C117.74625992 34.13091837 59.87312737 34.06745573 2 34 C1.65446625 31.33445395 1.32368623 28.6682243 1 26 C0.90460938 25.27554688 0.80921875 24.55109375 0.7109375 23.8046875 C-0.24603705 15.73875913 0 8.32423122 0 0 Z " fill="#FEFEFE" transform="translate(84,537)"/>
</svg>
